<svg width="45" height="45" viewBox="0 0 45 45" fill="none" xmlns="http://www.w3.org/2000/svg">
<g id="Vector" transform="translate(3 0)">
<path fill-rule="evenodd" clip-rule="evenodd" d="M17.6236 0.515701C18.7847 -0.1719 20.2153 -0.171901 21.3764 0.515701L37.1236 9.84108C38.2847 10.5287 39 11.7994 39 13.1746V31.8254C39 33.2006 38.2847 34.4713 37.1236 35.1589L21.3764 44.4843C20.2153 45.1719 18.7847 45.1719 17.6236 44.4843L1.87639 35.1589C0.715275 34.4713 0 33.2006 0 31.8254V13.1746C0 11.7994 0.715275 10.5287 1.87639 9.84108L17.6236 0.515701ZM21.125 21.5377L34.775 13.4543C35.6725 12.9228 36.4 13.3536 36.4 14.4166V30.5834C36.4 31.6464 35.6725 32.9389 34.775 33.4704L21.125 41.5538C20.2275 42.0852 19.5 41.6544 19.5 40.5915V24.4246C19.5 23.3617 20.2275 22.0692 21.125 21.5377ZM29.3026 24.8736L28.2548 22.1403C28.1501 21.8672 27.7499 22.1042 27.6452 22.5013L26.5974 26.4756C26.5645 26.6005 26.4943 26.7251 26.4054 26.8167L23.5737 29.7346C23.2908 30.0262 23.2908 30.5002 23.5737 30.4566L26.4054 30.0207C26.4943 30.007 26.5645 30.0486 26.5974 30.1345L27.6452 32.8677C27.7499 33.1408 28.1501 32.9038 28.2548 32.5067L29.3026 28.5324C29.3355 28.4076 29.4057 28.283 29.4946 28.1913L32.3263 25.2734C32.6092 24.9819 32.6092 24.5079 32.3263 24.5514L29.4946 24.9873C29.4057 25.001 29.3355 24.9595 29.3026 24.8736ZM32.3507 20.3419L32.0024 19.4332C31.9501 19.2967 31.7499 19.4152 31.6976 19.6137L31.3493 20.935C31.3328 20.9974 31.2977 21.0597 31.2532 21.1055L30.3119 22.0756C30.1704 22.2214 30.1704 22.4584 30.3119 22.4366L31.2532 22.2917C31.2977 22.2848 31.3328 22.3056 31.3493 22.3485L31.6976 23.2572C31.75 23.3938 31.9501 23.2753 32.0024 23.0767L32.3507 21.7555C32.3672 21.693 32.4023 21.6307 32.4468 21.5849L33.3881 20.6148C33.5296 20.4691 33.5296 20.2321 33.3881 20.2538L32.4468 20.3988C32.4023 20.4056 32.3672 20.3848 32.3507 20.3419Z" fill="url(#paint0_linear_763_1493)"/>
<path d="M27.6452 22.5013C27.7499 22.1042 28.1501 21.8672 28.2548 22.1403L29.3026 24.8736C29.3355 24.9595 29.4057 25.001 29.4946 24.9873L32.3263 24.5514C32.6092 24.5079 32.6092 24.9819 32.3263 25.2734L29.4946 28.1913C29.4057 28.283 29.3355 28.4076 29.3026 28.5324L28.2548 32.5067C28.1501 32.9038 27.7499 33.1408 27.6452 32.8677L26.5974 30.1345C26.5645 30.0486 26.4943 30.007 26.4054 30.0207L23.5737 30.4566C23.2908 30.5002 23.2908 30.0262 23.5737 29.7346L26.4054 26.8167C26.4943 26.7251 26.5645 26.6005 26.5974 26.4756L27.6452 22.5013Z" fill="url(#paint2_linear_763_1493)"/>
<path d="M31.6976 19.6137C31.7499 19.4152 31.9501 19.2967 32.0024 19.4332L32.3507 20.3419C32.3672 20.3848 32.4023 20.4056 32.4468 20.3988L33.3881 20.2538C33.5296 20.2321 33.5296 20.4691 33.3881 20.6148L32.4468 21.5849C32.4023 21.6307 32.3672 21.693 32.3507 21.7555L32.0024 23.0767C31.9501 23.2753 31.75 23.3938 31.6976 23.2572L31.3493 22.3485C31.3328 22.3056 31.2977 22.2848 31.2532 22.2917L30.3119 22.4366C30.1704 22.4584 30.1704 22.2214 30.3119 22.0756L31.2532 21.1055C31.2977 21.0597 31.3328 20.9974 31.3493 20.935L31.6976 19.6137Z" fill="url(#paint3_linear_763_1493)"/>
</g>
<defs>
<linearGradient id="paint0_linear_763_1493" x1="22.8834" y1="0.432692" x2="22.8834" y2="45.4327" gradientUnits="userSpaceOnUse">
<stop stop-color="#0052D4"/>
<stop offset="1" stop-color="#6FB1FC"/>
</linearGradient>
<linearGradient id="paint2_linear_763_1493" x1="22.8834" y1="0.432692" x2="22.8834" y2="45.4327" gradientUnits="userSpaceOnUse">
<stop stop-color="#0052D4"/>
<stop offset="1" stop-color="#6FB1FC"/>
</linearGradient>
<linearGradient id="paint3_linear_763_1493" x1="22.8834" y1="0.432692" x2="22.8834" y2="45.4327" gradientUnits="userSpaceOnUse">
<stop stop-color="#0052D4"/>
<stop offset="1" stop-color="#6FB1FC"/>
</linearGradient>
</defs>
</svg>
