<svg width="24" height="24" viewBox="0 0 24 24" fill="none" xmlns="http://www.w3.org/2000/svg">
<g clip-path="url(#clip0_0_13)">
<path d="M16.6943 5.21338C16.5334 5.10203 16.368 4.99677 16.1992 4.89697C16.368 4.99681 16.5334 5.102 16.6943 5.21338ZM16.6943 5.21338C16.7611 5.25956 16.8263 5.30785 16.8916 5.35596C16.8263 5.30786 16.7611 5.25955 16.6943 5.21338ZM6.33984 17.9995C7.51921 19.1121 8.99993 19.8527 10.5977 20.1284C12.0924 20.3863 13.6274 20.2267 15.0342 19.6704C13.6169 20.2311 12.0706 20.3899 10.5664 20.1245C8.97973 19.8445 7.50971 19.1063 6.33789 18.0005V17.9995H6.33984ZM15.2676 19.5757C15.205 19.6027 15.1412 19.6275 15.0781 19.6528C15.1567 19.6212 15.2348 19.5883 15.3125 19.5542C15.2973 19.5609 15.2828 19.5691 15.2676 19.5757ZM15.5908 19.4263C15.5176 19.4617 15.4435 19.4955 15.3691 19.5288C15.4435 19.4955 15.5176 19.4617 15.5908 19.4263ZM15.8525 19.2935C15.7774 19.3331 15.7015 19.3713 15.625 19.4087C15.7015 19.3713 15.7774 19.3331 15.8525 19.2935ZM16.3711 18.9956C16.3195 19.0279 16.2672 19.0592 16.2148 19.0903C16.2672 19.0592 16.3195 19.0279 16.3711 18.9956ZM16.6348 18.8237C16.5758 18.8638 16.516 18.9024 16.4561 18.9409C16.516 18.9024 16.5758 18.8637 16.6348 18.8237ZM16.8809 18.6509C16.8268 18.6905 16.7718 18.7288 16.7168 18.7671C16.7718 18.7288 16.8268 18.6905 16.8809 18.6509ZM17.1143 18.4722C17.0574 18.5171 16.9994 18.5606 16.9414 18.604C16.9995 18.5606 17.0574 18.5171 17.1143 18.4722ZM17.3359 18.2905C17.2876 18.3315 17.2387 18.3718 17.1895 18.4116C17.2387 18.3718 17.2876 18.3315 17.3359 18.2905ZM17.5459 18.106C17.5305 18.1199 17.5155 18.1341 17.5 18.1479C17.5155 18.1341 17.5305 18.1199 17.5459 18.106ZM17.791 17.8745C17.7617 17.9034 17.7319 17.932 17.7021 17.9604C17.7319 17.932 17.7617 17.9034 17.791 17.8745ZM17.9844 17.6772C17.947 17.7167 17.9083 17.7548 17.8701 17.7935C17.9083 17.7548 17.947 17.7167 17.9844 17.6772ZM18.2051 17.436C18.1657 17.481 18.1253 17.5248 18.085 17.5688C18.1253 17.5248 18.1657 17.4809 18.2051 17.436ZM18.3779 17.231C18.3549 17.259 18.332 17.2872 18.3086 17.3149C18.332 17.2872 18.3549 17.259 18.3779 17.231ZM18.5635 16.9966C18.5418 17.025 18.5201 17.0534 18.498 17.0815C18.5201 17.0534 18.5418 17.025 18.5635 16.9966ZM18.7656 16.7202C18.7312 16.7696 18.6956 16.8181 18.6602 16.8667C18.6956 16.8182 18.7312 16.7696 18.7656 16.7202ZM18.8926 16.5337C18.8831 16.5482 18.8729 16.5622 18.8633 16.5767C18.8804 16.5511 18.8973 16.5253 18.9141 16.4995C18.9067 16.5108 18.9 16.5224 18.8926 16.5337ZM19.0703 16.2485C19.0523 16.2786 19.0341 16.3085 19.0156 16.3384C19.0341 16.3085 19.0523 16.2786 19.0703 16.2485ZM19.2168 15.9946C19.2064 16.0135 19.1961 16.0325 19.1855 16.0513C19.1961 16.0325 19.2064 16.0135 19.2168 15.9946ZM19.3701 15.7056C19.3553 15.735 19.3403 15.7642 19.3252 15.7935C19.3403 15.7642 19.3553 15.735 19.3701 15.7056ZM19.501 15.4341C19.4851 15.4688 19.4685 15.5031 19.4521 15.5376C19.4685 15.5031 19.4851 15.4688 19.501 15.4341ZM19.6143 15.1733C19.6024 15.2017 19.5903 15.23 19.5781 15.2583C19.5903 15.23 19.6024 15.2017 19.6143 15.1733ZM19.835 14.5815C19.8209 14.6244 19.8058 14.6669 19.791 14.7095C19.8058 14.6669 19.8208 14.6244 19.835 14.5815ZM19.918 14.311C19.9038 14.3597 19.8891 14.4082 19.874 14.4565C19.8891 14.4082 19.9038 14.3597 19.918 14.311ZM19.998 14.0171C19.9836 14.0742 19.9687 14.1312 19.9531 14.188C19.9688 14.1312 19.9836 14.0742 19.998 14.0171ZM20.0566 13.77C20.0542 13.7811 20.0523 13.7922 20.0498 13.8032C20.0523 13.7922 20.0542 13.7811 20.0566 13.77ZM20.2021 12.8774C20.1999 12.8983 20.1967 12.9191 20.1943 12.9399C20.1967 12.9191 20.1999 12.8983 20.2021 12.8774ZM4.15723 7.15771L4.70898 7.71143L4.71191 7.70752L5.2207 8.21729L6.75 9.74951H3V5.99951L4.15723 7.15771ZM20.0996 10.4312C20.104 10.4539 20.1081 10.4767 20.1123 10.4995C20.1081 10.4767 20.104 10.4539 20.0996 10.4312ZM20.0371 10.1362C20.0464 10.1765 20.0548 10.2169 20.0635 10.2573C20.0548 10.2169 20.0464 10.1765 20.0371 10.1362ZM19.9678 9.86084C19.9741 9.88456 19.9802 9.90835 19.9863 9.93213C19.9802 9.90835 19.9741 9.88456 19.9678 9.86084ZM19.8799 9.55811C19.8921 9.59746 19.9044 9.63674 19.916 9.67627C19.9044 9.63674 19.8921 9.59745 19.8799 9.55811ZM19.7852 9.271C19.7986 9.30928 19.8114 9.34775 19.8242 9.38623C19.8114 9.34775 19.7986 9.30928 19.7852 9.271ZM19.6748 8.97412C19.6959 9.02763 19.7164 9.08133 19.7363 9.13525C19.7164 9.08133 19.6959 9.02763 19.6748 8.97412ZM19.5723 8.7251C19.5775 8.73715 19.5827 8.74916 19.5879 8.76123C19.5827 8.74916 19.5775 8.73714 19.5723 8.7251ZM19.4355 8.42334C19.4561 8.46602 19.4754 8.50925 19.4951 8.55225C19.4753 8.50925 19.4561 8.46601 19.4355 8.42334ZM19.2988 8.15283C19.3256 8.20361 19.3513 8.25488 19.377 8.30615C19.3513 8.25488 19.3256 8.2036 19.2988 8.15283ZM19.1504 7.88525C19.1787 7.93443 19.2062 7.98399 19.2334 8.03369C19.2062 7.984 19.1787 7.93443 19.1504 7.88525ZM19.002 7.63623C19.0297 7.68076 19.0562 7.726 19.083 7.771C19.0561 7.726 19.0297 7.68075 19.002 7.63623ZM18.8594 7.41357C18.8782 7.44169 18.8956 7.4712 18.9141 7.49951C18.8851 7.45504 18.856 7.41066 18.8262 7.3667C18.8369 7.38254 18.8487 7.39765 18.8594 7.41357ZM10.3857 3.90674C11.6556 3.65339 12.9622 3.70526 14.2012 4.04834C12.9537 3.70307 11.6376 3.65448 10.3604 3.91357C8.77129 4.23597 7.31235 5.01978 6.16602 6.1665L6.16309 6.16943C5.82474 6.51162 5.50764 6.84709 5.20117 7.17822L4.9834 7.41357L5.23828 7.13623C5.53583 6.81374 5.84118 6.49214 6.16309 6.16748L6.16211 6.1665C7.31521 5.01205 8.78556 4.226 10.3857 3.90674ZM18.6533 7.12061C18.6914 7.17252 18.7287 7.22496 18.7656 7.27783C18.7287 7.22497 18.6914 7.17251 18.6533 7.12061ZM18.4668 6.87549C18.4986 6.91569 18.5294 6.95673 18.5605 6.99756C18.5294 6.95673 18.4986 6.91568 18.4668 6.87549ZM18.2627 6.62842C18.3099 6.68352 18.3555 6.73999 18.4014 6.79639C18.3555 6.74 18.3099 6.6835 18.2627 6.62842ZM18.0674 6.40869C18.11 6.45497 18.1518 6.50204 18.1934 6.54932C18.1518 6.50205 18.11 6.45496 18.0674 6.40869ZM17.6328 5.97119C17.6935 6.02794 17.7535 6.08546 17.8125 6.14404C17.7535 6.08547 17.6935 6.02792 17.6328 5.97119ZM17.2012 5.59424C17.2392 5.62512 17.276 5.65741 17.3135 5.68896C17.276 5.65742 17.2392 5.62511 17.2012 5.59424ZM16.9473 5.39697C16.9933 5.4315 17.0387 5.46696 17.084 5.50244C17.0387 5.46697 16.9933 5.43149 16.9473 5.39697ZM15.9307 4.74463C15.9876 4.77549 16.0435 4.80817 16.0996 4.84033C16.0435 4.80819 15.9876 4.77547 15.9307 4.74463ZM14.8301 4.24854C14.939 4.28833 15.0478 4.33002 15.1553 4.37451C15.3998 4.47573 15.6378 4.58994 15.8701 4.71338C15.6209 4.58105 15.3647 4.46071 15.1016 4.354C15.0116 4.3175 14.9211 4.28176 14.8301 4.24854ZM14.249 4.06104C14.4264 4.11129 14.6022 4.16772 14.7764 4.22998C14.6022 4.16775 14.4263 4.11126 14.249 4.06104ZM16.1172 19.1479C16.039 19.193 15.9597 19.2363 15.8799 19.2788C15.9597 19.2363 16.039 19.193 16.1172 19.1479ZM17.8584 6.18994C17.9208 6.25288 17.9816 6.31735 18.042 6.38232C17.9816 6.31736 17.9208 6.25286 17.8584 6.18994ZM17.4355 5.79248C17.4983 5.84745 17.56 5.90358 17.6211 5.96045C17.56 5.90359 17.4983 5.84744 17.4355 5.79248Z" fill="black" stroke="#4B5563" stroke-width="1.5"/>
</g>
<defs>
<clipPath id="clip0_0_13">
<rect width="24" height="24" fill="white"/>
</clipPath>
</defs>
</svg>
