<svg class="flow-lines" viewBox="0 0 1097 246" fill="none" xmlns="http://www.w3.org/2000/svg"><defs><linearGradient id="flowGrad" gradientUnits="userSpaceOnUse" x1="0" y1="0" x2="440" y2="0" spreadMethod="repeat"><stop offset="0" stop-color="#2f80ff"/><stop offset="0.42" stop-color="#2f80ff"/><stop offset="0.5" stop-color="#eaf3ff"/><stop offset="0.58" stop-color="#2f80ff"/><stop offset="1" stop-color="#2f80ff"/><animateTransform attributeName="gradientTransform" type="translate" from="0 0" to="440 0" dur="2.6s" calcMode="spline" keyTimes="0;1" keySplines="0.42 0 0.58 1" repeatCount="indefinite"/></linearGradient></defs><g><path d="M10.3839 11.1361C118.671 9.89953 155.851 9.26364 208.578 21.6221C250.834 31.526 308.559 81.1671 317.397 88.6571C327.252 97.0076 351.738 106.766 381.163 115.021C383.023 115.543 384.828 116.223 386.587 117.025C396.753 121.656 414.736 128.662 422.478 128.905C437.436 128.905 451.272 112.053 467.352 112.053C482.31 112.053 498.016 134.897 510.73 134.523C522.45 134.523 531.903 121.181 549.452 113.775C554.86 111.492 561.001 110.925 566.308 113.433C579.434 119.633 592.192 134.831 603.844 134.523C616.09 134.523 630.282 119.501 644.503 114.631C648.899 113.126 653.672 113.6 658.093 115.035C673.369 119.994 681.731 127.879 695.088 128.156C707.652 128.416 708.924 120.666 733.604 114.3C766.512 106.258 763.521 108.131 779.974 98.0195C809.89 78.1712 811.76 68.3908 854.017 40.7214C892.907 15.2556 963.584 8.42027 1086.24 11.1361" fill="none" stroke="url(#flowGrad)" stroke-width="2.4" stroke-linecap="round"/><path d="M10.0101 66.9361C122.569 66.9361 205.212 66.7998 251.956 80.418C272.523 86.4099 299.835 101.016 326.746 108.88C344.599 114.097 363.019 115.797 374.238 118.793C386.792 122.146 387.326 125.588 401.162 127.032C419.112 128.904 432.435 113.924 447.158 113.924C462.116 113.924 478.196 134.772 490.911 134.397C502.635 134.397 512.657 121.71 530.363 114.476C535.797 112.256 541.941 111.657 547.226 114.21C560.053 120.406 572.023 135.454 583.65 135.146C595.889 135.146 609.237 118.757 623.217 113.491C627.566 111.853 632.369 112.328 636.745 113.894C652.59 119.563 662.994 130.5 676.39 130.777C688.955 131.037 700.323 116.171 730.239 118.044C783.714 118.044 793.437 107.517 811.012 99.1428C849.529 80.7925 864.285 77.6999 896.273 72.928C949 65.0636 977.794 67.3106 1086.61 67.3106" fill="none" stroke="url(#flowGrad)" stroke-width="2.4" stroke-linecap="round"/><path d="M10.0101 123.485C120.326 123.735 230.267 123.287 294.587 123.287C313.64 124.189 326.259 124.405 336.372 124.326C367.135 124.087 397.895 117.946 428.467 121.386C431.856 121.767 435.687 122.38 440.053 123.287C449.776 125.308 470.717 129.254 479.318 127.531C494.276 124.535 502.877 112.426 518.957 112.426C533.915 112.426 552.239 134.896 564.953 134.522C576.661 134.522 584.974 120.926 602.193 113.441C607.577 111.101 613.686 110.585 619.118 112.808C632.515 118.29 646.039 131.461 657.693 131.151C670.251 131.151 684.853 120.329 699.436 117.038C703.207 116.186 707.127 116.5 710.925 117.217C733.225 121.424 735.982 123.744 750.058 124.036C762.623 124.296 785.21 122.912 799.42 122.912C843.546 122.912 825.596 122.912 850.651 122.912C890.664 122.912 891.778 123.786 938.156 123.786C995.37 123.786 963.21 122.413 1086.99 122.912" fill="none" stroke="url(#flowGrad)" stroke-width="2.4" stroke-linecap="round"/><path d="M10.0101 178.536C119.952 178.536 217.179 178.536 241.859 168.05C270.28 160.186 303.561 145.581 315.154 139.214C334.599 130.601 328.616 132.649 368.255 124.41C379.473 122.533 401.162 120.815 409.763 122.538C424.721 125.534 425.469 130.402 440.801 130.777C452.768 130.777 470.717 110.554 483.432 110.928C495.152 110.928 504.605 124.273 522.153 131.681C527.561 133.963 533.691 134.524 539.037 132.102C552.153 126.163 564.902 111.749 576.545 112.057C588.784 112.057 602.132 128.446 616.112 133.712C620.461 135.35 625.279 134.904 629.61 133.215C645.162 127.15 654.401 114.581 667.789 114.304C673.002 114.195 680.777 117.529 688.677 121.172C706.216 129.258 725.856 127.709 745.16 128.026C773.55 128.493 785.958 136.066 800.168 140.712C834.377 155.413 845.042 165.956 892.908 172.346C950.496 180.034 966.576 178.162 1086.99 178.911" fill="none" stroke="url(#flowGrad)" stroke-width="2.4" stroke-linecap="round"/><path d="M10.0101 235.085C118.83 235.085 152.859 237.531 211.196 223.102C254.2 210.369 263.923 203.628 307.301 162.433C338.339 136.593 350.305 135.095 376.482 130.226C391.188 127.491 399.667 115.798 412.381 116.172C424.042 116.172 430.651 124.039 447.278 130.038C452.799 132.03 458.9 132.651 464.252 130.24C477.265 124.38 489.748 110.246 501.381 110.554C513.653 110.554 528.713 127.659 543.191 133.049C547.547 134.671 552.376 134.267 556.653 132.447C572.227 125.818 581.47 110.832 594.869 110.554C604.465 110.355 611.4 119.635 625.136 126.867C634.605 131.852 645.886 133.084 655.32 128.031C665.136 122.773 675.454 115.026 685.739 115.798C700.081 116.872 709.517 120.91 717.388 124.738C723.683 127.799 730.31 130.07 737.119 131.69C754.929 135.927 763.461 138.553 783.34 149.7C815.874 167.945 819.613 183.779 862.618 209.62C911.979 240.328 1003.6 234.711 1086.99 234.711" fill="none" stroke="url(#flowGrad)" stroke-width="2.4" stroke-linecap="round"/><path d="M10.3839 11.1361C118.671 9.89953 155.851 9.26364 208.578 21.6221C250.834 31.526 308.559 81.1671 317.397 88.6571C327.252 97.0076 351.738 106.766 381.163 115.021C383.023 115.543 384.828 116.223 386.587 117.025C396.753 121.656 414.736 128.662 422.478 128.905C437.436 128.905 451.272 112.053 467.352 112.053C482.31 112.053 498.016 134.897 510.73 134.523C522.45 134.523 531.903 121.181 549.452 113.775C554.86 111.492 561.001 110.925 566.308 113.433C579.434 119.633 592.192 134.831 603.844 134.523C616.09 134.523 630.282 119.501 644.503 114.631C648.899 113.126 653.672 113.6 658.093 115.035C673.369 119.994 681.731 127.879 695.088 128.156C707.652 128.416 708.924 120.666 733.604 114.3C766.512 106.258 763.521 108.131 779.974 98.0195C809.89 78.1712 811.76 68.3908 854.017 40.7214C892.907 15.2556 963.584 8.42027 1086.24 11.1361" fill="none" stroke="url(#flowGrad)" stroke-width="2.4" stroke-linecap="round"/><path d="M10.0101 66.9361C122.569 66.9361 205.212 66.7998 251.956 80.418C272.523 86.4099 299.835 101.016 326.746 108.88C344.599 114.097 363.019 115.797 374.238 118.793C386.792 122.146 387.326 125.588 401.162 127.032C419.112 128.904 432.435 113.924 447.158 113.924C462.116 113.924 478.196 134.772 490.911 134.397C502.635 134.397 512.657 121.71 530.363 114.476C535.797 112.256 541.941 111.657 547.226 114.21C560.053 120.406 572.023 135.454 583.65 135.146C595.889 135.146 609.237 118.757 623.217 113.491C627.566 111.853 632.369 112.328 636.745 113.894C652.59 119.563 662.994 130.5 676.39 130.777C688.955 131.037 700.323 116.171 730.239 118.044C783.714 118.044 793.437 107.517 811.012 99.1428C849.529 80.7925 864.285 77.6999 896.273 72.928C949 65.0636 977.794 67.3106 1086.61 67.3106" fill="none" stroke="url(#flowGrad)" stroke-width="2.4" stroke-linecap="round"/><path d="M10.0101 123.485C120.326 123.735 230.267 123.287 294.587 123.287C313.64 124.189 326.259 124.405 336.372 124.326C367.135 124.087 397.895 117.946 428.467 121.386C431.856 121.767 435.687 122.38 440.053 123.287C449.776 125.308 470.717 129.254 479.318 127.531C494.276 124.535 502.877 112.426 518.957 112.426C533.915 112.426 552.239 134.896 564.953 134.522C576.661 134.522 584.974 120.926 602.193 113.441C607.577 111.101 613.686 110.585 619.118 112.808C632.515 118.29 646.039 131.461 657.693 131.151C670.251 131.151 684.853 120.329 699.436 117.038C703.207 116.186 707.127 116.5 710.925 117.217C733.225 121.424 735.982 123.744 750.058 124.036C762.623 124.296 785.21 122.912 799.42 122.912C843.546 122.912 825.596 122.912 850.651 122.912C890.664 122.912 891.778 123.786 938.156 123.786C995.37 123.786 963.21 122.413 1086.99 122.912" fill="none" stroke="url(#flowGrad)" stroke-width="2.4" stroke-linecap="round"/><path d="M10.0101 178.536C119.952 178.536 217.179 178.536 241.859 168.05C270.28 160.186 303.561 145.581 315.154 139.214C334.599 130.601 328.616 132.649 368.255 124.41C379.473 122.533 401.162 120.815 409.763 122.538C424.721 125.534 425.469 130.402 440.801 130.777C452.768 130.777 470.717 110.554 483.432 110.928C495.152 110.928 504.605 124.273 522.153 131.681C527.561 133.963 533.691 134.524 539.037 132.102C552.153 126.163 564.902 111.749 576.545 112.057C588.784 112.057 602.132 128.446 616.112 133.712C620.461 135.35 625.279 134.904 629.61 133.215C645.162 127.15 654.401 114.581 667.789 114.304C673.002 114.195 680.777 117.529 688.677 121.172C706.216 129.258 725.856 127.709 745.16 128.026C773.55 128.493 785.958 136.066 800.168 140.712C834.377 155.413 845.042 165.956 892.908 172.346C950.496 180.034 966.576 178.162 1086.99 178.911" fill="none" stroke="url(#flowGrad)" stroke-width="2.4" stroke-linecap="round"/><path d="M10.0101 235.085C118.83 235.085 152.859 237.531 211.196 223.102C254.2 210.369 263.923 203.628 307.301 162.433C338.339 136.593 350.305 135.095 376.482 130.226C391.188 127.491 399.667 115.798 412.381 116.172C424.042 116.172 430.651 124.039 447.278 130.038C452.799 132.03 458.9 132.651 464.252 130.24C477.265 124.38 489.748 110.246 501.381 110.554C513.653 110.554 528.713 127.659 543.191 133.049C547.547 134.671 552.376 134.267 556.653 132.447C572.227 125.818 581.47 110.832 594.869 110.554C604.465 110.355 611.4 119.635 625.136 126.867C634.605 131.852 645.886 133.084 655.32 128.031C665.136 122.773 675.454 115.026 685.739 115.798C700.081 116.872 709.517 120.91 717.388 124.738C723.683 127.799 730.31 130.07 737.119 131.69C754.929 135.927 763.461 138.553 783.34 149.7C815.874 167.945 819.613 183.779 862.618 209.62C911.979 240.328 1003.6 234.711 1086.99 234.711" fill="none" stroke="url(#flowGrad)" stroke-width="2.4" stroke-linecap="round"/></g></svg>